# xmcd
#
# Track frame offsets:
#	150
#	14901
#	27427
#	43604
#	55938
#	71535
#	81714
#	101288
#	113417
#	131563
#	138297
#	152013
#
# Disc length: 2256 seconds
#
# Revision: 1
# Processed by: cddbd v1.5.2PL0 Copyright (c) Steve Scherf et al.
# Submitted via: audiograbber 1.83.01
#
DISCID=a008ce0c
DTITLE=Cancer Bats - Hail Destroyer
DYEAR=2008
DGENRE=Rock
TTITLE0=Hail Destroyer
TTITLE1=Harem of Scorpions
TTITLE2=Deathsmarch
TTITLE3=Regret
TTITLE4=Bastard's waltz
TTITLE5=Sorceress
TTITLE6=Lucifer's Rocking Chair
TTITLE7=Let it pour
TTITLE8=Smiling Politely
TTITLE9=Pray For Darkness
TTITLE10=PMA 'Til I'm DOA
TTITLE11=Zed's dead, Baby
EXTD=
EXTT0=
EXTT1=
EXTT2=
EXTT3=
EXTT4=
EXTT5=
EXTT6=
EXTT7=
EXTT8=
EXTT9=
EXTT10=
EXTT11=
PLAYORDER=
